<?xml version="1.0" encoding="UTF-8" standalone="no"?>
<svg
   xmlns:dc="http://purl.org/dc/elements/1.1/"
   xmlns:cc="http://creativecommons.org/ns#"
   xmlns:rdf="http://www.w3.org/1999/02/22-rdf-syntax-ns#"
   xmlns:svg="http://www.w3.org/2000/svg"
   xmlns="http://www.w3.org/2000/svg"
   id="svg2"
   viewBox="0 0 590.409 576.98761"
   height="576.98761"
   width="590.409"
   version="1.1">
  <metadata
     id="metadata11">
    <rdf:RDF>
      <cc:Work
         rdf:about="">
        <dc:format>image/svg+xml</dc:format>
        <dc:type
           rdf:resource="http://purl.org/dc/dcmitype/StillImage" />
        <dc:title></dc:title>
      </cc:Work>
    </rdf:RDF>
  </metadata>
  <defs
     id="defs9" />
  <g
     transform="translate(795.15118,94.381737)"
     id="icomoon-ignore" />
  <path
     style="fill:#000000;fill-opacity:1;stroke:#000000;stroke-opacity:1"
     id="path5"
     d="m 411.72566,360.74381 c 0,51 -36.5,91.25 -89.5,100 l 0,43.75 c 0,4.5 -3.5,8 -8,8 l -33.75,0 c -4.25,0 -8,-3.5 -8,-8 l 0,-43.75 c -58.5,-8.25 -90.5,-43.25 -91.75,-44.75 -2.5,-3 -2.75,-7.25 -0.5,-10.25 l 25.75,-33.75 c 1.25,-1.75 3.5,-2.75 5.75,-3 2.25,-0.25 4.5,0.5 6,2.25 0.5,0.25 35.5,33.75 79.75,33.75 24.5,0 51,-13 51,-41.25 0,-24 -29.5,-35.75 -63.25,-49.25 -45,-17.75 -101,-40.25 -101,-103 0,-46.00001 36,-84.00001 88.25,-94.00001 l 0,-44.999998 c 0,-4.5 3.75,-8 8,-8 l 33.75,0 c 4.5,0 8,3.5 8,8 l 0,43.999998 c 50.75,5.75 77.75,33.25 78.75,34.25 2.5,2.75 3,6.5 1.25,9.5 l -20.25,36.5 c -1.25,2.25 -3.25,3.75 -5.75,4 -2.5,0.5 -4.75,-0.25 -6.75,-1.75 -0.25,-0.25 -30.5,-27 -68,-27 -31.75,0 -53.75,15.75 -53.75,38.50001 0,26.5 30.5,38.25 66,52 46,17.75 98,38 98,98.25 z" />
  <rect
     y="10"
     x="10"
     height="556.98761"
     width="570.409"
     id="rect4139"
     style="opacity:1;fill:none;fill-opacity:1;stroke:#000000;stroke-width:20;stroke-miterlimit:4;stroke-dasharray:none;stroke-dashoffset:0;stroke-opacity:1" />
</svg>
