<?xml version="1.0" encoding="UTF-8" standalone="no"?>
<svg
   xmlns:dc="http://purl.org/dc/elements/1.1/"
   xmlns:cc="http://creativecommons.org/ns#"
   xmlns:rdf="http://www.w3.org/1999/02/22-rdf-syntax-ns#"
   xmlns:svg="http://www.w3.org/2000/svg"
   xmlns="http://www.w3.org/2000/svg"
   xml:space="preserve"
   enable-background="new 0 -7.635 681.886 223"
   viewBox="0 -7.635 568.69502 202.912"
   height="202.912"
   width="568.69501"
   y="0px"
   x="0px"
   id="Слой_1"
   version="1.1"><metadata
     id="metadata23"><rdf:RDF><cc:Work
         rdf:about=""><dc:format>image/svg+xml</dc:format><dc:type
           rdf:resource="http://purl.org/dc/dcmitype/StillImage" /><dc:title></dc:title></cc:Work></rdf:RDF></metadata><defs
     id="defs21" /><g
     transform="translate(-388.743,-343.548)"
     id="g4165"><g
       id="g3"><path
         style="fill:#ffffff"
         d="m 668.445,454.8 6.413,0 0,1.55 -1.981,0 -4.802,5.544 6.319,7.621 1.55,0 0,1.55 -4.461,0 -5.763,-7.684 -1.767,0 0,6.133 2.169,0 0,1.55 -7.715,0 0,-1.55 2.294,0 0,-13.165 -2.294,0 0,-1.55 7.282,0 0,1.55 -1.736,0 0,5.763 1.61,0 4.834,-5.763 -1.952,0 0,-1.549 0,0 z"
         id="path5" /><path
         style="fill:#ffffff"
         d="m 682.667,467.751 c 0.391,-0.517 0.723,-1.203 0.992,-2.059 0.269,-0.859 0.485,-1.804 0.65,-2.837 0.164,-1.031 0.284,-2.112 0.358,-3.236 0.07,-1.125 0.107,-2.216 0.107,-3.268 l -2.417,0 0,-1.55 14.345,0 0,1.55 -2.292,0 0,13.165 2.292,0 0,1.55 -7.59,0 0,-1.55 2.044,0 0,-13.165 -4.523,0 c -0.021,1.942 -0.138,3.717 -0.355,5.327 -0.217,1.613 -0.512,3.043 -0.885,4.291 -0.371,1.25 -0.799,2.305 -1.284,3.161 -0.485,0.859 -1.007,1.503 -1.566,1.937 l -2.788,0 0,-3.315 2.912,0 0,-0.001 z"
         id="path7" /><path
         style="fill:#ffffff"
         d="m 702.587,456.35 -1.827,0 0,-1.55 7.992,0 0,1.55 -2.602,0 4.213,10.286 0.621,2.354 0.154,0 0.59,-2.386 3.315,-10.255 -1.89,0 0,-1.55 5.948,0 0,1.55 -1.984,0 -5.082,14.715 c -0.29,0.846 -0.603,1.626 -0.945,2.339 -0.339,0.713 -0.671,1.342 -0.992,1.89 -0.318,0.548 -0.629,0.992 -0.929,1.334 -0.3,0.339 -0.553,0.551 -0.76,0.634 l -3.127,0 0,-2.787 3.119,0 c 0.141,-0.167 0.274,-0.331 0.397,-0.496 0.123,-0.167 0.245,-0.373 0.368,-0.621 0.123,-0.248 0.253,-0.551 0.397,-0.914 0.144,-0.36 0.305,-0.82 0.491,-1.378 l -1.086,0 -6.381,-14.715 0,0 z"
         id="path9" /><path
         style="fill:#ffffff"
         d="m 723.219,462.515 c 0,-2.767 0.274,-5.05 0.82,-6.846 0.546,-1.798 1.349,-3.218 2.409,-4.262 1.062,-1.041 2.375,-1.764 3.941,-2.166 1.566,-0.405 3.37,-0.606 5.408,-0.606 l 0,-1.114 1.984,0 0,4.09 -4.239,0 c -1.156,0 -2.229,0.107 -3.221,0.324 -0.989,0.217 -1.856,0.611 -2.6,1.177 -0.741,0.569 -1.352,1.344 -1.824,2.326 -0.475,0.981 -0.754,2.234 -0.838,3.764 l 0.188,0 c 0.556,-1.135 1.443,-2.085 2.66,-2.85 1.219,-0.765 2.652,-1.146 4.304,-1.146 2.166,0 3.878,0.645 5.137,1.934 1.261,1.292 1.89,3.197 1.89,5.716 0,1.261 -0.185,2.412 -0.556,3.456 -0.373,1.044 -0.914,1.942 -1.623,2.696 -0.713,0.754 -1.576,1.336 -2.597,1.749 -1.021,0.415 -2.182,0.621 -3.479,0.621 -1.156,0 -2.211,-0.198 -3.171,-0.59 -0.958,-0.392 -1.777,-0.966 -2.456,-1.72 -0.681,-0.752 -1.206,-1.681 -1.579,-2.787 -0.373,-1.106 -0.558,-2.362 -0.558,-3.766 l 0,0 z m 3.471,0.031 c 0,1.362 0.123,2.508 0.371,3.437 0.251,0.929 0.598,1.689 1.044,2.279 0.444,0.587 0.963,1.013 1.553,1.268 0.59,0.258 1.227,0.389 1.911,0.389 1.37,0 2.412,-0.569 3.127,-1.704 0.713,-1.135 1.073,-2.787 1.073,-4.956 0,-1.075 -0.12,-1.994 -0.36,-2.759 -0.237,-0.762 -0.559,-1.394 -0.963,-1.89 -0.405,-0.496 -0.874,-0.856 -1.415,-1.083 -0.538,-0.227 -1.12,-0.342 -1.741,-0.342 -1.057,0 -1.937,0.162 -2.641,0.48 -0.705,0.321 -1.245,0.686 -1.616,1.101 -0.125,0.556 -0.214,1.135 -0.266,1.733 -0.053,0.601 -0.077,1.283 -0.077,2.047 l 0,0 z"
         id="path11" /><path
         style="fill:#ffffff"
         d="m 752.683,471.065 -7.592,0 0,-1.55 2.294,0 0,-13.165 -2.294,0 0,-1.55 7.592,0 0,1.55 -2.046,0 0,5.575 7.59,0 0,-5.575 -2.044,0 0,-1.55 7.59,0 0,1.55 -2.292,0 0,13.165 2.292,0 0,1.55 -7.59,0 0,-1.55 2.044,0 0,-5.854 -7.59,0 0,5.854 2.046,0 0,1.55 z"
         id="path13" /><path
         style="fill:#ffffff"
         d="m 775.08,461.401 c 0.371,-0.042 0.804,-0.094 1.297,-0.157 0.493,-0.063 1.203,-0.091 2.13,-0.091 1.751,0 3.145,0.381 4.184,1.146 1.039,0.765 1.561,1.963 1.561,3.594 0,0.867 -0.167,1.626 -0.496,2.276 -0.329,0.65 -0.793,1.203 -1.391,1.657 -0.598,0.454 -1.313,0.796 -2.148,1.023 -0.835,0.227 -1.757,0.339 -2.767,0.339 -0.619,0 -1.336,-0.018 -2.148,-0.06 -0.814,-0.042 -1.665,-0.063 -2.553,-0.063 l -3.216,0 0,-1.55 2.294,0 0,-13.165 -2.294,0 0,-1.55 7.593,0 0,1.55 -2.046,0 0,5.051 0,0 z m 0,8.208 c 0.29,0.021 0.59,0.047 0.898,0.078 0.311,0.031 0.611,0.047 0.9,0.047 2.602,0 3.902,-1.292 3.902,-3.873 0,-0.621 -0.102,-1.135 -0.308,-1.55 -0.209,-0.412 -0.478,-0.744 -0.807,-0.992 -0.331,-0.245 -0.718,-0.428 -1.161,-0.54 -0.444,-0.115 -0.895,-0.172 -1.349,-0.172 -0.308,0 -0.645,0.013 -1.005,0.031 -0.363,0.021 -0.718,0.063 -1.07,0.125 l 0,6.846 0,0 z m 17.876,1.456 -7.59,0 0,-1.55 2.044,0 0,-13.165 -2.075,0 0,-1.55 7.621,0 0,1.55 -2.292,0 0,13.165 2.292,0 0,1.55 z"
         id="path15" /><path
         style="fill:#ffffff"
         d="m 798.719,454.8 7.436,0 0,1.55 -2.044,0 0,9.542 -0.185,3.346 0.185,0 1.177,-2.759 6.134,-11.68 6.042,0 0,1.55 -2.294,0 0,13.165 2.294,0 0,1.55 -7.436,0 0,-1.55 2.044,0 0,-9.913 0.342,-3.192 -0.185,0 -1.302,3.069 -6.227,11.586 -5.98,0 0,-1.55 2.294,0 0,-13.165 -2.294,0 -10e-4,-1.549 0,0 z m 9.73,-1.952 c -0.744,0 -1.446,-0.065 -2.109,-0.201 -0.66,-0.133 -1.242,-0.318 -1.749,-0.556 -0.506,-0.238 -0.929,-0.506 -1.271,-0.807 -0.339,-0.3 -0.572,-0.624 -0.697,-0.976 l 0,-1.796 3.469,0 0,2.446 c 0.274,0.188 0.598,0.316 0.974,0.389 0.378,0.073 0.838,0.107 1.383,0.107 0.564,0 1.018,-0.026 1.365,-0.076 0.345,-0.052 0.684,-0.162 1.021,-0.326 l 0,-2.54 3.375,0 0,1.796 c -0.06,0.352 -0.258,0.681 -0.587,0.992 -0.331,0.311 -0.76,0.579 -1.287,0.806 -0.527,0.227 -1.12,0.407 -1.78,0.54 -0.664,0.136 -1.366,0.202 -2.107,0.202 z"
         id="path17" /><path
         style="fill:#ffffff"
         d="m 836.269,471.065 -0.621,0.619 0,4.03 -2.229,0 0,-6.199 2.075,0 c 0.269,-0.308 0.577,-0.762 0.929,-1.362 0.35,-0.598 0.681,-1.415 0.992,-2.448 0.308,-1.031 0.572,-2.312 0.788,-3.839 0.219,-1.529 0.326,-3.367 0.326,-5.515 l -2.417,0 0,-1.55 14.903,0 0,1.55 -2.294,0 0,13.165 2.79,0 0,6.199 -2.232,0 0,-4.03 -0.619,-0.619 -12.391,-10e-4 0,0 z m 4.244,-14.623 c -0.021,1.963 -0.136,3.667 -0.342,5.113 -0.206,1.446 -0.454,2.691 -0.744,3.732 -0.29,1.044 -0.592,1.905 -0.914,2.587 -0.321,0.684 -0.603,1.229 -0.851,1.642 l 7.807,0 0,-13.074 -4.956,0 z"
         id="path19" /><path
         style="fill:#ffffff"
         d="m 857.303,462.948 c 0,-1.362 0.196,-2.571 0.587,-3.625 0.392,-1.052 0.942,-1.937 1.655,-2.649 0.713,-0.712 1.576,-1.253 2.597,-1.626 1.021,-0.371 2.151,-0.556 3.388,-0.556 1.443,0 2.683,0.201 3.724,0.603 1.041,0.402 1.892,0.971 2.553,1.704 0.658,0.733 1.148,1.621 1.469,2.665 0.318,1.041 0.478,2.203 0.478,3.484 0,1.362 -0.19,2.566 -0.572,3.61 -0.381,1.044 -0.929,1.921 -1.639,2.633 -0.713,0.713 -1.576,1.255 -2.597,1.626 -1.021,0.371 -2.161,0.559 -3.417,0.559 -1.402,0 -2.62,-0.201 -3.649,-0.606 -1.031,-0.402 -1.887,-0.971 -2.568,-1.704 -0.681,-0.731 -1.185,-1.616 -1.514,-2.649 -0.33,-1.031 -0.495,-2.187 -0.495,-3.469 l 0,0 z m 3.471,0 c 0,0.992 0.091,1.911 0.279,2.756 0.185,0.848 0.491,1.582 0.916,2.2 0.425,0.621 0.974,1.112 1.647,1.472 0.673,0.363 1.498,0.543 2.472,0.543 1.221,0 2.226,-0.559 3.015,-1.673 0.788,-1.115 1.182,-2.881 1.182,-5.298 0,-0.992 -0.094,-1.916 -0.282,-2.772 -0.185,-0.859 -0.48,-1.6 -0.885,-2.232 -0.405,-0.629 -0.921,-1.12 -1.553,-1.472 -0.634,-0.35 -1.404,-0.527 -2.318,-0.527 -1.368,0 -2.453,0.559 -3.263,1.673 -0.808,1.118 -1.21,2.893 -1.21,5.33 l 0,0 z"
         id="path21" /><path
         style="fill:#ffffff"
         d="m 885.682,471.065 -6.196,0 0,-1.55 2.292,0 0,-13.165 -2.198,0 0,-1.55 6.877,0 4.492,9.975 0.091,0 4.648,-9.975 6.723,0 0,1.55 -2.294,0 0,13.165 2.294,0 0,1.55 -7.436,0 0,-1.55 2.044,0 0,-13.165 -0.277,0 -5.951,12.546 -0.958,0 -5.919,-12.546 -0.277,0 0,13.165 2.044,0 10e-4,1.55 0,0 z"
         id="path23" /></g><path
       style="fill:#ffffff"
       d="m 707.891,425.481 c -4.822,5.937 -10.508,6.359 -14.248,6.362 -8.359,0.019 -11.194,-5.264 -23.435,-5.235 -12.36,0.026 -17.772,7.58 -28.463,7.602 -12.856,0.032 -27.062,-9.96 -27.11,-30.525 -0.026,-12.589 7.142,-19.257 12.54,-22.285 4.429,-2.49 9.657,-3.382 14.712,-3.392 13.471,-0.029 15.356,9.087 15.449,13.613 L 660,391.615 c 0,-0.535 -0.087,-1.153 -0.087,-1.682 -0.01,-3.64 0.329,-10.64 0.673,-14.013 -1.06,0.358 -2.835,0.809 -7.621,0.197 -2.664,-0.354 -6.03,-1.408 -11.706,-1.395 -4.345,0.01 -8.691,0.284 -12.766,1.537 -10.988,3.389 -21.863,13.877 -21.827,29.745 0.039,18.087 15.027,31.179 34.181,31.388 l -0.003,0.003 c 0.032,0 0.061,-0.003 0.09,-0.003 0.158,0.003 0.309,0.01 0.464,0.01 0.612,0 1.221,-0.032 1.83,-0.084 10.91,-0.673 15.778,-5.621 25.509,-5.644 8.662,-0.019 10.382,6.51 22.971,6.481 12.872,-0.026 18.236,-12.679 18.236,-12.679 l -2.053,0.005 0,0 z m 11.587,-49.691 0.003,2.487 c 5.17,0.329 6.9,0.773 6.9,0.773 l 0,1.002 c -8.54,0.019 -4.213,53.003 -15.736,53.025 -0.712,0.003 -1.334,0.003 -2.042,-0.081 l 0.006,2.484 c 1.243,0.348 2.484,0.528 3.724,0.525 21.051,-0.045 6.997,-51.801 22.884,-56.349 l 9.854,-0.019 0.084,37.859 c 0.016,7.444 0.744,15.955 -4.577,15.965 l -1.865,0.003 0.006,2.484 3.286,-0.006 c 1.234,-0.003 2.387,-0.187 3.627,-0.364 1.156,-0.18 2.216,-0.271 3.373,-0.274 0.973,0 2.036,0.084 3.012,0.261 1.153,0.174 2.216,0.348 3.369,0.345 l 3.192,-0.006 -0.006,-2.484 -1.862,0.003 c -5.141,0.016 -4.893,-9.654 -4.909,-15.939 l -0.058,-26.688 c -0.016,-7.003 0.325,-13.297 6.887,-12.608 l -0.003,-2.48 c -12.502,0.648 -16.01,0.654 -22.926,0.67 -6.917,0.015 -3.718,0.008 -16.223,-0.588 m 235.03,46.644 c -3.005,5.863 -9.287,11.11 -18.326,11.129 -12.856,0.029 -27.065,-9.96 -27.11,-30.528 -0.026,-12.585 7.142,-19.25 12.54,-22.278 4.426,-2.496 9.654,-3.386 14.708,-3.398 13.484,-0.029 15.362,9.087 15.462,13.62 l 2.654,-0.006 c 0,-0.538 -0.087,-1.16 -0.09,-1.685 -0.006,-3.64 0.332,-10.643 0.676,-14.013 -1.066,0.354 -2.835,0.805 -7.621,0.197 -2.658,-0.354 -6.03,-1.411 -11.706,-1.398 -4.342,0.013 -8.691,0.287 -12.763,1.537 -10.981,3.392 -21.869,13.88 -21.831,29.748 0.042,18.261 15.314,31.439 34.732,31.394 2.219,-0.003 4.432,-0.358 6.562,-0.805 10.54,-2.335 11.155,-4.819 15.043,-13.52 l -2.93,0.006 0,0 z m -59.929,-2.522 -0.077,-33.959 c -0.003,-1.414 -0.006,-3.63 0.329,-11.787 l -3.009,0.625 c -6.191,8.256 -23.679,37.621 -32.419,53.354 l -0.618,0.003 c 0.261,-3.637 0.773,-12.057 0.767,-15.61 l -0.048,-22.697 c -0.016,-5.579 -0.206,-11.874 4.661,-11.883 l 1.865,-0.003 -0.006,-2.487 -2.925,0.006 c -1.24,0.003 -2.484,0.274 -3.721,0.448 -1.06,0.184 -2.216,0.187 -3.276,0.19 -1.156,0.003 -2.216,0.006 -3.373,-0.174 -1.243,-0.171 -2.397,-0.435 -3.64,-0.432 l -2.651,0.006 0,2.484 1.862,-0.003 c 5.054,-0.013 4.536,6.188 4.545,11.864 l 0.071,32.093 c 0.013,5.499 -0.068,9.487 -0.319,14.989 l 3.543,-0.541 c 20.584,-24.346 26.234,-41.728 32.325,-51.672 l 0.448,0.274 c -1.144,5.937 -1.047,9.661 -1.034,15.246 l 0.042,19.144 c 0.016,6.655 -0.055,13.745 -4.748,13.758 l -1.778,0 0.006,2.487 3.192,-0.01 c 0.886,0 1.862,-0.177 2.741,-0.271 1.337,-0.184 2.757,-0.361 4.085,-0.364 2.831,-0.006 3.195,0.615 6.558,0.606 l 3.192,-0.006 -0.006,-2.484 -1.865,0.006 c -5.672,0.01 -4.706,-6.992 -4.719,-13.2 m -66.76,-44.357 c -9.67,0.023 -7.631,0.635 -13.21,0.647 -1.959,0.003 -4.168,-0.258 -7.895,-0.602 l 0.006,2.484 c 7.177,-0.454 6.568,4.6 6.587,13.903 l 0.058,26.862 c 0.013,6.12 0.129,14.451 -4.658,14.46 l -1.862,0.006 0.003,2.484 3.276,-0.006 c 0.982,-0.003 1.949,-0.18 2.928,-0.361 1.24,-0.187 2.574,-0.274 3.811,-0.277 1.156,-0.003 2.393,0.084 3.547,0.261 1.063,0.177 2.046,0.348 3.109,0.345 l 4.159,-0.01 0,-2.48 -2.838,0.003 c -5.148,0.013 -4.803,-8.06 -4.819,-15.32 l -0.087,-39.46 c 1.156,-0.261 2.3,-0.441 3.46,-0.448 8.949,-0.019 16.142,5.373 16.164,15.124 0.016,8.159 -5.109,14.554 -11.316,14.567 -1.243,0.003 -2.393,0.003 -3.64,-0.261 l 0.01,2.226 c 0.976,0.258 2.393,0.425 4.081,0.422 8.591,-0.019 17.801,-6.507 17.778,-17.318 -0.024,-9.139 -5.799,-17.276 -18.652,-17.251 m -44.289,0.097 c -11.345,0.026 -19.669,6.159 -19.646,16.625 0.019,8.243 5.267,14.441 18.033,15.03 l 0,0.796 c -13.5,0.029 -6.826,24.829 -18.345,24.858 -0.715,0.003 -1.334,0.003 -2.039,-0.081 l 0.003,2.48 c 1.243,0.354 2.484,0.531 3.727,0.528 21.048,-0.048 7.766,-24.047 23.651,-28.595 l -0.003,-1.688 -4.165,0.01 c -6.475,0.01 -13.748,-4.851 -13.764,-13.716 -0.026,-11.696 11.22,-15.443 20.181,-13.159 l 0.087,40.958 c 0.013,5.673 -0.235,13.652 -4.845,13.661 l -1.865,0.006 0.006,2.48 3.276,-0.01 c 0.982,-0.003 2.042,-0.177 3.015,-0.358 1.156,-0.184 2.31,-0.274 3.456,-0.277 3.547,-0.006 2.219,0.615 6.478,0.606 l 3.985,-0.006 -0.006,-2.484 -2.12,0.003 c -4.7,0.013 -4.716,-7.699 -4.732,-14.702 l -0.058,-26.952 c -0.026,-9.4 -0.747,-14.003 6.79,-13.581 l -0.006,-2.484 c -3.009,0.535 -6.021,0.638 -10.021,0.644 -4.776,0.017 -7.443,-0.602 -11.073,-0.592 m -93.491,2.877 c 7.818,-0.016 17.147,4.233 17.179,18.716 0.026,11.146 -7.064,21.734 -19.076,21.756 -11.158,0.029 -16.225,-8.462 -16.245,-17.894 -0.029,-12.528 7.631,-22.556 18.142,-22.578 m -1.933,43.142 c 17.388,-0.039 26.205,-12.17 26.179,-23.638 -0.029,-12.376 -9.909,-22.207 -25.77,-22.172 -14.824,0.032 -23.715,11.716 -23.692,22.797 0.032,13.214 10.137,23.042 23.283,23.013"
       id="path25" /><g
       id="g27"><path
         style="fill:#ffffff"
         d="m 480.575,337.566 c 0.612,0.374 1.524,0.799 2.577,1.311 3.965,1.942 9.976,5.215 9.976,12.337 0,1.627 -0.838,3.299 -2.161,4.993 -4.825,6.191 -16.045,12.666 -16.045,18.136 0,0.773 0.264,1.456 0.709,2.081 2.951,4.107 14.425,5.37 18.368,9.661 0.838,0.915 1.34,1.965 1.34,3.215 0,7.802 -4.806,13.591 -4.806,13.591 l 0.406,0.496 0.403,0.496 0.006,0 c 0,0 8.565,-7.009 8.565,-12.566 0,-0.445 -0.074,-0.879 -0.2,-1.314 0,-0.01 0,-0.016 -0.003,-0.026 -0.19,-0.654 -0.519,-1.298 -0.953,-1.933 -0.006,-0.01 -0.01,-0.019 -0.019,-0.032 -0.1,-0.145 -0.213,-0.29 -0.319,-0.432 -0.055,-0.071 -0.103,-0.142 -0.161,-0.209 -0.09,-0.113 -0.187,-0.225 -0.28,-0.338 -0.09,-0.1 -0.168,-0.2 -0.258,-0.3 -0.335,-0.37 -0.702,-0.734 -1.092,-1.098 -0.055,-0.052 -0.109,-0.103 -0.164,-0.155 -0.035,-0.035 -0.081,-0.071 -0.116,-0.103 -0.622,-0.56 -1.288,-1.108 -1.997,-1.652 -0.206,-0.161 -0.416,-0.319 -0.631,-0.48 -0.09,-0.064 -0.174,-0.132 -0.264,-0.197 -0.052,-0.039 -0.106,-0.074 -0.158,-0.113 -0.551,-0.406 -1.115,-0.805 -1.688,-1.205 -1.256,-0.873 -2.532,-1.723 -3.721,-2.554 -3.241,-2.255 -5.869,-4.349 -5.869,-6.275 0,-6.223 18.48,-22.294 18.48,-27.497 0,-0.573 -0.055,-1.111 -0.151,-1.62 -1.243,-6.639 -10.334,-7.728 -19.824,-7.728 l 0.016,0.374 0.034,1.136 0,0 z m 27.468,15.466 c -1.311,7.451 -20.732,12.756 -21.94,19.617 -1.214,6.861 18.886,10.414 17.501,18.271 -1.353,7.686 -7.093,12.553 -7.093,12.553 l 0.628,1.115 0.003,0.003 c 0,0 9.654,-5.415 10.614,-10.888 1.256,-7.103 -15.288,-16.296 -14.418,-21.241 1.079,-6.13 22.069,-18.748 22.974,-23.87 1.404,-7.973 -7.989,-10.904 -18.052,-12.679 l -0.213,1.495 c 2.565,2.272 11.562,6.746 9.996,15.624 m -35.695,168.671 c 1.314,-7.448 20.742,-12.756 21.95,-19.617 1.211,-6.861 -18.896,-10.411 -17.508,-18.274 1.356,-7.679 7.093,-12.547 7.093,-12.547 l -0.628,-1.118 -0.003,0 c 0,0 -9.651,5.415 -10.617,10.885 -1.253,7.106 15.298,16.296 14.425,21.244 -1.082,6.13 -22.072,18.748 -22.977,23.87 -1.408,7.969 7.989,10.904 18.052,12.679 l 0.209,-1.498 c -2.564,-2.268 -11.561,-6.749 -9.996,-15.624 m 50.068,-164.287 c -2.587,7.106 -22.636,8.958 -25.02,15.507 -2.381,6.546 16.796,13.532 14.07,21.035 -2.67,7.328 -9.168,11.129 -9.168,11.129 l 0.422,1.205 0.006,0.003 c 0,0 10.447,-3.656 12.344,-8.878 2.471,-6.777 -12.228,-18.706 -10.514,-23.425 2.129,-5.85 24.994,-14.631 26.775,-19.518 2.767,-7.605 -5.975,-12.125 -15.575,-15.62 l -0.47,1.44 c 2.131,2.678 10.216,8.65 7.13,17.122 m -64.441,159.903 c 2.587,-7.103 22.639,-8.958 25.02,-15.504 2.384,-6.549 -16.796,-13.536 -14.067,-21.035 2.67,-7.332 9.168,-11.129 9.168,-11.129 l -0.425,-1.208 -0.003,0 c 0,0 -10.447,3.656 -12.347,8.875 -2.467,6.781 12.234,18.709 10.517,23.428 -2.129,5.847 -24.994,14.628 -26.775,19.518 -2.767,7.602 5.972,12.122 15.575,15.62 l 0.467,-1.44 c -2.131,-2.677 -10.213,-8.65 -7.13,-17.125 M 535.81,364.226 c -3.782,6.549 -23.85,4.893 -27.329,10.927 -3.485,6.033 14.193,16.245 10.199,23.158 -3.901,6.755 -10.956,9.371 -10.956,9.371 l 0.203,1.259 0.003,0.006 c 0,0 10.927,-1.791 13.703,-6.6 3.611,-6.246 -8.8,-20.548 -6.288,-24.897 3.109,-5.389 27.152,-10.07 29.755,-14.573 4.046,-7.006 -3.782,-12.975 -12.631,-18.084 l -0.705,1.334 c 1.634,3.007 8.556,10.29 4.046,18.099 m -91.226,146.283 c 3.779,-6.549 23.85,-4.89 27.329,-10.923 3.485,-6.037 -14.19,-16.248 -10.198,-23.161 3.901,-6.752 10.956,-9.367 10.956,-9.367 l -0.206,-1.263 -0.003,0 c 0,0 -10.927,1.785 -13.703,6.597 -3.605,6.246 8.8,20.545 6.291,24.897 -3.112,5.386 -27.155,10.066 -29.755,14.57 -4.046,7.006 3.779,12.978 12.624,18.084 l 0.712,-1.334 c -1.634,-3.005 -8.557,-10.291 -4.047,-18.1 M 547.819,373.258 c -4.858,5.792 -24.337,0.676 -28.814,6.011 -4.481,5.338 11.155,18.464 6.024,24.581 -5.012,5.975 -12.415,7.322 -12.415,7.322 l -0.013,1.282 c 0,0 11.065,0.138 14.637,-4.117 4.635,-5.528 -5.099,-21.766 -1.872,-25.612 4.001,-4.767 28.489,-5.199 31.832,-9.184 5.202,-6.198 -1.462,-13.436 -9.293,-20.004 l -0.931,1.192 c 1.087,3.247 6.643,11.623 0.845,18.529 M 432.572,501.48 c 4.861,-5.792 24.34,-0.676 28.817,-6.014 4.478,-5.338 -11.155,-18.464 -6.024,-24.578 5.012,-5.975 12.415,-7.322 12.415,-7.322 l 0.016,-1.285 -0.003,0 c 0,0 -11.065,-0.135 -14.637,4.117 -4.635,5.528 5.096,21.766 1.872,25.612 -4.004,4.767 -28.492,5.199 -31.836,9.184 -5.202,6.194 1.466,13.436 9.29,20.004 l 0.934,-1.189 c -1.085,-3.25 -6.639,-11.626 -0.844,-18.529 M 558.076,384.236 c -5.792,4.861 -24.085,-3.56 -29.42,0.921 -5.341,4.478 7.779,20.12 1.662,25.248 -5.975,5.016 -13.497,5.057 -13.497,5.057 l -0.235,1.256 0,0.006 c 0,0 10.875,2.055 15.13,-1.517 5.528,-4.635 -1.24,-22.317 2.606,-25.545 4.764,-4.001 28.956,-0.174 32.944,-3.518 6.201,-5.202 0.889,-13.484 -5.679,-21.312 l -1.121,1.008 c 0.502,3.388 4.516,12.604 -2.39,18.396 m -135.76,106.263 c 5.795,-4.861 24.089,3.559 29.423,-0.921 5.338,-4.474 -7.779,-20.12 -1.665,-25.248 5.975,-5.016 13.5,-5.057 13.5,-5.057 l 0.235,-1.26 c 0,0 -10.875,-2.058 -15.133,1.514 -5.524,4.635 1.243,22.317 -2.603,25.545 -4.767,4.004 -28.962,0.174 -32.947,3.518 -6.198,5.202 -0.886,13.487 5.679,21.315 l 1.127,-1.011 c -0.506,-3.384 -4.523,-12.603 2.384,-18.395 m 143.958,-93.668 c -6.549,3.782 -23.103,-7.686 -29.136,-4.204 -6.037,3.482 4.168,21.167 -2.745,25.155 -6.758,3.904 -14.17,2.638 -14.17,2.638 l -0.454,1.195 0,0.003 c 0,0 10.353,3.914 15.166,1.137 6.246,-3.608 2.651,-22.195 7,-24.704 5.389,-3.112 28.55,4.854 33.06,2.258 7.003,-4.049 3.212,-13.127 -1.894,-21.975 l -1.285,0.796 c -0.089,3.425 2.266,13.195 -5.542,17.701 m -152.153,81.073 c 6.549,-3.782 23.103,7.686 29.133,4.204 6.037,-3.482 -4.165,-21.164 2.745,-25.158 6.758,-3.898 14.177,-2.635 14.177,-2.635 l 0.451,-1.195 0,-0.003 c 0,0 -10.356,-3.914 -15.166,-1.137 -6.246,3.608 -2.651,22.194 -7,24.707 -5.392,3.109 -28.553,-4.861 -33.057,-2.258 -7.009,4.043 -3.218,13.127 1.891,21.972 l 1.285,-0.799 c 0.09,-3.422 -2.264,-13.192 5.541,-17.698 M 572.156,410.66 c -7.103,2.583 -21.415,-11.584 -27.961,-9.2 -6.552,2.38 0.428,21.566 -7.071,24.298 -7.335,2.67 -14.418,0.132 -14.418,0.132 l -0.651,1.098 0,0.006 c 0,0 9.512,5.653 14.737,3.753 6.778,-2.467 6.468,-21.396 11.184,-23.116 5.847,-2.129 27.271,9.744 32.161,7.963 7.602,-2.767 5.444,-12.366 1.952,-21.969 l -1.401,0.564 c -0.682,3.357 -0.06,13.385 -8.532,16.471 m -163.92,53.418 c 7.106,-2.587 21.418,11.584 27.967,9.197 6.546,-2.38 -0.432,-21.566 7.071,-24.295 7.332,-2.667 14.415,-0.135 14.415,-0.135 l 0.651,-1.102 c 0,0 -9.516,-5.653 -14.737,-3.753 -6.778,2.467 -6.465,21.396 -11.184,23.113 -5.847,2.129 -27.271,-9.741 -32.161,-7.963 -7.602,2.767 -5.45,12.366 -1.952,21.972 l 1.401,-0.567 c 0.682,-3.353 0.057,-13.387 8.529,-16.467 m 167.315,-38.781 c -7.448,1.314 -19.083,-15.127 -25.941,-13.916 -6.865,1.208 -3.324,21.315 -11.187,22.697 -7.68,1.359 -14.215,-2.371 -14.215,-2.371 l -0.838,0.973 0,0.006 c 0,0 8.391,7.216 13.864,6.252 7.103,-1.253 10.083,-19.949 15.03,-20.822 6.124,-1.079 25.164,14.331 30.286,13.429 7.969,-1.408 7.512,-11.236 5.74,-21.299 l -1.482,0.312 c -1.252,3.188 -2.379,13.174 -11.257,14.739 m -170.704,24.141 c 7.444,-1.314 19.076,15.127 25.938,13.916 6.865,-1.208 3.321,-21.312 11.184,-22.7 7.683,-1.353 14.219,2.371 14.219,2.371 l 0.834,-0.97 0,-0.003 c 0,0 -8.391,-7.219 -13.864,-6.252 -7.1,1.25 -10.079,19.946 -15.027,20.819 -6.127,1.082 -25.164,-14.331 -30.286,-13.426 -7.973,1.404 -7.515,11.236 -5.74,21.296 l 1.482,-0.312 c 1.251,-3.188 2.379,-13.174 11.26,-14.739 m 171.5,-9.136 c -7.557,0 -16.161,-18.21 -23.129,-18.21 -6.968,0 -6.971,20.413 -14.956,20.413 -7.799,0 -13.587,-4.803 -13.587,-4.803 l -0.995,0.809 0,0.006 c 0,0 7.009,8.565 12.569,8.565 7.209,0 13.394,-17.894 18.413,-17.894 6.224,0 22.298,18.484 27.5,18.484 8.089,0 9.348,-9.764 9.348,-19.978 l -1.511,0.052 c -1.788,2.918 -4.633,12.556 -13.652,12.556 m -172.302,-5.869 c 7.564,0 16.164,18.21 23.129,18.21 6.971,0 6.974,-20.413 14.956,-20.413 7.802,0 13.594,4.806 13.594,4.806 l 0.989,-0.812 0,-0.006 c 0,0 -7.009,-8.562 -12.566,-8.562 -7.212,0 -13.394,17.894 -18.413,17.894 -6.223,0 -22.298,-18.484 -27.497,-18.484 -8.095,0 -9.351,9.757 -9.355,19.975 l 1.514,-0.052 c 1.788,-2.918 4.636,-12.556 13.649,-12.556 m 170.488,20.784 c -7.451,-1.314 -12.759,-20.738 -19.621,-21.95 -6.861,-1.208 -10.411,18.893 -18.271,17.508 -7.683,-1.353 -12.553,-7.093 -12.553,-7.093 l -1.115,0.628 0,0.003 c 0,0 5.415,9.654 10.885,10.617 7.106,1.253 16.3,-15.295 21.244,-14.425 6.13,1.082 18.748,22.075 23.87,22.98 7.969,1.401 10.904,-7.989 12.676,-18.052 l -1.495,-0.213 c -2.271,2.568 -6.745,11.562 -15.62,9.997 M 405.865,419.519 c 7.448,1.314 12.753,20.738 19.614,21.95 6.865,1.211 10.414,-18.896 18.274,-17.508 7.683,1.353 12.55,7.093 12.55,7.093 l 1.118,-0.628 0,-0.003 c 0,0 -5.415,-9.654 -10.888,-10.62 -7.103,-1.25 -16.296,15.298 -21.241,14.425 -6.13,-1.079 -18.748,-22.072 -23.873,-22.974 -7.966,-1.408 -10.901,7.986 -12.676,18.049 l 1.498,0.213 c 2.268,-2.566 6.746,-11.563 15.624,-9.997 m 164.284,50.074 c -7.106,-2.59 -8.958,-22.642 -15.507,-25.023 -6.546,-2.384 -13.533,16.796 -21.032,14.067 -7.332,-2.67 -11.133,-9.164 -11.133,-9.164 l -1.208,0.422 -0.003,0.006 c 0,0 3.663,10.447 8.881,12.347 6.774,2.467 18.706,-12.238 23.425,-10.517 5.847,2.126 14.628,24.994 19.518,26.772 7.602,2.767 12.122,-5.972 15.62,-15.575 l -1.44,-0.47 c -2.677,2.132 -8.646,10.218 -17.121,7.135 M 410.246,405.145 c 7.106,2.587 8.958,22.639 15.507,25.02 6.546,2.384 13.533,-16.796 21.035,-14.067 7.332,2.67 11.129,9.164 11.129,9.164 l 1.208,-0.422 0,-0.003 c 0,0 -3.656,-10.447 -8.878,-12.347 -6.778,-2.467 -18.706,12.234 -23.425,10.517 -5.85,-2.129 -14.631,-24.997 -19.518,-26.775 -7.605,-2.767 -12.125,5.972 -15.62,15.575 l 1.44,0.47 c 2.677,-2.132 8.65,-10.214 17.122,-7.132 m 153.093,77.839 c -6.549,-3.779 -4.893,-23.85 -10.927,-27.336 -6.037,-3.482 -16.245,14.193 -23.161,10.205 -6.752,-3.901 -9.367,-10.959 -9.367,-10.959 l -1.263,0.209 0,0.003 c 0,0 1.788,10.92 6.6,13.7 6.246,3.608 20.542,-8.8 24.894,-6.291 5.386,3.112 10.066,27.158 14.57,29.758 7.009,4.043 12.978,-3.779 18.084,-12.627 l -1.33,-0.712 c -3.008,1.634 -10.295,8.56 -18.1,4.05 M 417.055,391.751 c 6.549,3.779 4.893,23.85 10.927,27.332 6.033,3.485 16.245,-14.193 23.158,-10.198 6.758,3.901 9.371,10.955 9.371,10.955 l 1.259,-0.206 0.003,-0.003 c 0,0 -1.788,-10.923 -6.597,-13.703 -6.246,-3.608 -20.548,8.8 -24.897,6.291 -5.389,-3.112 -10.066,-27.155 -14.573,-29.758 -7.006,-4.046 -12.975,3.779 -18.084,12.627 l 1.334,0.712 c 3.008,-1.633 10.291,-8.558 18.099,-4.049 m 137.252,103.242 c -5.795,-4.858 -0.676,-24.337 -6.014,-28.817 -5.338,-4.478 -18.461,11.158 -24.578,6.027 -5.979,-5.016 -7.322,-12.418 -7.322,-12.418 l -1.282,-0.016 -0.003,0.003 c 0,0 -0.135,11.068 4.12,14.641 5.528,4.635 21.763,-5.099 25.609,-1.872 4.767,3.998 5.196,28.489 9.184,31.832 6.201,5.199 13.439,-1.466 20.004,-9.297 l -1.189,-0.928 c -3.248,1.086 -11.623,6.64 -18.529,0.845 M 426.088,379.742 c 5.792,4.861 0.673,24.337 6.011,28.817 5.338,4.478 18.464,-11.158 24.581,-6.027 5.975,5.016 7.325,12.418 7.325,12.418 l 1.279,0.016 0,-0.003 c 0,0 0.135,-11.068 -4.117,-14.641 -5.528,-4.635 -21.763,5.102 -25.612,1.872 -4.764,-3.998 -5.199,-28.489 -9.184,-31.833 -6.194,-5.202 -13.436,1.466 -20.001,9.293 l 1.189,0.931 c 3.247,-1.084 11.622,-6.638 18.529,-0.843 m 117.237,125.507 c -4.861,-5.795 3.56,-24.085 -0.918,-29.423 -4.478,-5.338 -20.123,7.783 -25.248,1.665 -5.016,-5.975 -5.061,-13.5 -5.061,-13.5 l -1.256,-0.235 -0.006,0 c 0,0 -2.052,10.875 1.517,15.133 4.639,5.524 22.32,-1.243 25.548,2.603 4.001,4.771 0.174,28.959 3.518,32.947 5.202,6.198 13.481,0.886 21.312,-5.679 l -1.008,-1.124 c -3.39,0.506 -12.602,4.52 -18.398,-2.387 M 437.069,369.486 c 4.858,5.792 -3.563,24.085 0.918,29.423 4.478,5.338 20.12,-7.779 25.251,-1.665 5.012,5.975 5.054,13.5 5.054,13.5 l 1.259,0.235 0.003,0 c 0,0 2.055,-10.875 -1.517,-15.133 -4.635,-5.524 -22.317,1.243 -25.545,-2.606 -3.998,-4.764 -0.171,-28.959 -3.518,-32.944 -5.199,-6.198 -13.484,-0.889 -21.312,5.679 l 1.008,1.127 c 3.391,-0.509 12.604,-4.522 18.399,2.384 m 93.665,143.961 c -3.782,-6.552 7.683,-23.103 4.204,-29.136 -3.485,-6.037 -21.167,4.165 -25.158,-2.741 -3.901,-6.761 -2.635,-14.18 -2.635,-14.18 l -1.202,-0.451 c 0,0 -3.914,10.356 -1.134,15.169 3.605,6.246 22.191,2.651 24.704,6.997 3.109,5.392 -4.858,28.553 -2.255,33.06 4.043,7.009 13.123,3.212 21.972,-1.891 l -0.799,-1.285 c -3.424,-0.091 -13.194,2.26 -17.697,-5.542 m -81.07,-152.159 c 3.779,6.549 -7.689,23.103 -4.207,29.139 3.482,6.033 21.167,-4.168 25.155,2.745 3.904,6.755 2.638,14.174 2.638,14.174 l 1.198,0.451 0.003,-0.003 c 0,0 3.911,-10.353 1.134,-15.166 -3.608,-6.246 -22.194,-2.651 -24.704,-7 -3.112,-5.389 4.858,-28.55 2.258,-33.053 -4.046,-7.009 -13.127,-3.218 -21.975,1.891 l 0.799,1.285 c 3.425,0.086 13.191,-2.268 17.701,5.537 m 67.237,158.038 c -2.583,-7.103 11.587,-21.412 9.203,-27.964 -2.38,-6.546 -21.566,0.435 -24.298,-7.071 -2.667,-7.328 -0.135,-14.415 -0.135,-14.415 l -1.098,-0.651 -0.003,0 c 0,0 -5.65,9.519 -3.75,14.741 2.464,6.778 21.392,6.465 23.113,11.184 2.129,5.843 -9.741,27.271 -7.963,32.161 2.767,7.602 12.37,5.444 21.969,1.949 l -0.57,-1.401 c -3.351,-0.68 -13.385,-0.058 -16.468,-8.533 M 463.49,355.406 c 2.587,7.106 -11.584,21.415 -9.2,27.964 2.384,6.549 21.566,-0.428 24.298,7.074 2.667,7.332 0.132,14.415 0.132,14.415 l 1.102,0.651 0.003,0 c 0,0 5.653,-9.519 3.75,-14.74 -2.464,-6.778 -21.392,-6.462 -23.113,-11.181 -2.129,-5.85 9.744,-27.271 7.963,-32.164 -2.767,-7.602 -12.366,-5.447 -21.969,-1.949 l 0.564,1.401 c 3.356,0.682 13.387,0.057 16.47,8.529 m 38.774,167.315 c -1.311,-7.444 15.127,-19.08 13.919,-25.941 -1.211,-6.861 -21.312,-3.318 -22.7,-11.184 -1.353,-7.683 2.374,-14.219 2.374,-14.219 l -0.97,-0.834 -0.006,0 c 0,0 -7.219,8.391 -6.252,13.864 1.253,7.106 19.946,10.079 20.816,15.027 1.079,6.127 -14.331,25.168 -13.426,30.286 1.408,7.973 11.236,7.515 21.299,5.74 l -0.312,-1.479 c -3.187,-1.254 -13.173,-2.382 -14.742,-11.26 M 478.127,352.014 c 1.311,7.448 -15.127,19.08 -13.916,25.941 1.211,6.861 21.312,3.321 22.7,11.184 1.353,7.683 -2.371,14.219 -2.371,14.219 l 0.97,0.834 0.006,0 c 0,0 7.216,-8.391 6.249,-13.864 -1.25,-7.103 -19.946,-10.083 -20.819,-15.027 -1.079,-6.127 14.335,-25.168 13.429,-30.289 -1.408,-7.969 -11.236,-7.512 -21.299,-5.737 l 0.312,1.479 c 3.188,1.255 13.174,2.382 14.739,11.26 m 13.207,180.139 c -2.274,-2.004 -4.068,-4.745 -4.068,-8.63 0,-5.85 10.888,-12.328 15.823,-18.181 1.443,-1.714 2.381,-3.373 2.381,-4.954 0,-6.964 -20.41,-6.971 -20.41,-14.956 0,-0.796 0.061,-1.569 0.151,-2.326 0.796,-6.594 4.655,-11.262 4.655,-11.262 l -0.767,-0.941 -0.045,-0.052 -0.006,0 c 0,0 -5.312,4.352 -7.567,8.916 -0.609,1.227 -0.999,2.471 -0.999,3.65 0,7.212 17.894,13.397 17.894,18.416 0,3.837 -7.019,11.413 -12.408,17.881 -3.35,4.023 -6.072,7.621 -6.072,9.615 0,8.092 9.757,9.351 19.972,9.351 l -0.045,-1.514 c -1.666,-1.012 -5.49,-2.371 -8.489,-5.013"
         id="path29" /><path
         style="fill:#ffffff"
         d="m 498.894,424.134 c -1.173,0.032 -2.12,0.915 -2.268,2.049 -9.445,0.551 -17.253,2.915 -23.212,5.56 1.111,-7.251 5.65,-11.294 9.184,-13.265 3.324,-1.862 7.241,-2.522 11.03,-2.522 2.561,0 4.558,0.438 6.12,1.15 -0.242,2.428 -0.535,4.77 -0.854,7.028 m -3.875,18.703 c -0.612,0.026 -1.118,0.464 -1.227,1.05 -6.974,0.986 -12.769,2.928 -17.086,4.803 -2.187,-3.511 -3.55,-8.008 -3.55,-13.52 0,-0.867 0.058,-1.678 0.142,-2.467 5.94,-2.69 13.79,-5.135 23.357,-5.695 0.18,0.796 0.76,1.44 1.514,1.711 -0.905,5.221 -1.991,9.933 -3.15,14.118 m -2.828,8.929 c -0.805,2.239 -1.601,4.226 -2.352,5.992 -4.803,-0.925 -9.5,-3.695 -12.679,-8.366 4.242,-1.833 9.925,-3.714 16.741,-4.68 0.1,0.2 0.251,0.37 0.435,0.499 -0.709,2.371 -1.43,4.558 -2.145,6.555 m 25.657,-23.76 c -5.93,-1.334 -11.461,-1.907 -16.57,-1.942 -0.158,-0.85 -0.767,-1.54 -1.575,-1.81 0.312,-2.171 0.589,-4.42 0.831,-6.749 3.917,2.219 4.626,6.304 4.671,8.688 l 1.991,0 c 0,-0.399 -0.064,-0.867 -0.064,-1.263 0,-2.728 0.267,-7.979 0.531,-10.508 -0.802,0.267 -2.126,0.599 -5.718,0.135 -0.351,-0.045 -0.731,-0.113 -1.118,-0.187 0.254,-3.047 0.448,-6.204 0.551,-9.503 l -0.818,-0.029 c -0.106,3.257 -0.293,6.372 -0.551,9.377 -1.701,-0.329 -3.833,-0.725 -6.839,-0.725 -3.257,0 -6.517,0.2 -9.577,1.131 -7.766,2.377 -15.478,9.493 -16.338,20.268 -4.945,2.886 -7.564,5.373 -7.58,5.389 l 0.564,0.596 c 0.003,-0.006 0.905,-0.86 2.687,-2.171 1.095,-0.809 2.535,-1.785 4.268,-2.822 -0.013,0.335 -0.023,0.673 -0.023,1.015 0,5.409 1.791,10.218 4.842,14.07 -2.545,1.382 -3.92,2.393 -3.933,2.4 l 0.49,0.667 0,-0.003 c 0,-0.003 0.831,-0.612 2.429,-1.549 0.451,-0.264 0.979,-0.557 1.553,-0.867 3.878,4.539 9.586,7.618 16.213,8.572 -0.609,1.321 -1.176,2.471 -1.678,3.437 -1.372,2.641 -2.261,3.949 -2.261,3.956 l 0.68,0.461 c 0.013,-0.016 1.772,-2.622 4.114,-7.747 1.163,0.132 2.345,0.209 3.553,0.209 1.662,0 3.321,-0.264 4.922,-0.596 7.908,-1.733 8.375,-3.595 11.303,-10.115 l -2.2,0 c -2.265,4.394 -6.984,8.317 -13.761,8.317 -0.918,0 -1.843,-0.077 -2.761,-0.213 1.421,-3.34 2.97,-7.486 4.449,-12.453 0.606,-0.023 1.115,-0.454 1.237,-1.031 2.171,-0.225 4.436,-0.364 6.807,-0.361 3.885,0 8.031,0.338 12.389,1.147 l 0.151,-0.805 c -4.416,-0.821 -8.604,-1.166 -12.54,-1.166 -2.4,0 -4.703,0.135 -6.9,0.364 -0.1,-0.219 -0.258,-0.403 -0.454,-0.535 1.166,-4.21 2.258,-8.952 3.17,-14.206 1.156,-0.01 2.11,-0.857 2.3,-1.965 5.054,0.035 10.517,0.602 16.383,1.926 l 0.18,-0.804 0,0 z m -12.392,8.807 c 0,0.905 0.734,1.64 1.64,1.64 0.905,0 1.64,-0.734 1.64,-1.64 0,-0.908 -0.734,-1.643 -1.64,-1.643 -0.906,0 -1.64,0.735 -1.64,1.643"
         id="path31" /></g></g></svg>