<?xml version="1.0" encoding="UTF-8" standalone="no"?>
<svg
	 xmlns:dc="http://purl.org/dc/elements/1.1/"
	 xmlns:cc="http://creativecommons.org/ns#"
	 xmlns:rdf="http://www.w3.org/1999/02/22-rdf-syntax-ns#"
	 xmlns:svg="http://www.w3.org/2000/svg"
	 xmlns="http://www.w3.org/2000/svg"
	 xml:space="preserve"
	 enable-background="new 0 0 768 768"
	 viewBox="0 0 513 702"
	 height="702"
	 width="513"
	 y="0px"
	 x="0px"
	 id="Слой_1"
	 version="1.1"><metadata
		 id="metadata32"><rdf:RDF><cc:Work
				 rdf:about=""><dc:format>image/svg+xml</dc:format><dc:type
					 rdf:resource="http://purl.org/dc/dcmitype/StillImage" /><dc:title></dc:title></cc:Work></rdf:RDF></metadata><defs
		 id="defs30" /><g
		 transform="translate(-127.5,-33)"
		 id="icomoon-ignore" /><g
		 transform="translate(-127.5,-33)"
		 style="fill:#ffffff;fill-opacity:1;stroke:none;stroke-opacity:1"
		 id="g4"><path
			 style="fill:#ffffff;fill-opacity:1;stroke:none;stroke-opacity:1"
			 id="path6"
			 d="M 352.5,68.964 352.5,33 c -126,15 -225,123 -225,253.5 l 35.371,0 C 163.092,175.696 246.092,83.808 352.5,68.964 Z" /><path
			 style="fill:#ffffff;fill-opacity:1;stroke:none;stroke-opacity:1"
			 id="path8"
			 d="m 612.135,351 0,116.709 C 612.135,596.775 510.616,702.5 386.683,702.5 262.75,702.5 161.231,596.775 161.231,467.709 l 0,-116.709 -33.731,0 0,127.5 C 127.5,619.5 243,735 384,735 525,735 640.5,619.5 640.5,478.5 l 0,-127.5 -28.365,0 z" /><path
			 style="fill:#ffffff;fill-opacity:1;stroke:none;stroke-opacity:1"
			 id="path10"
			 d="m 415.5,33 0,34.952 C 524.128,80.884 609.478,173.993 609.478,286.5 l 31.022,0 C 640.5,156 541.5,48 415.5,33 Z" /><g
			 style="fill:#ffffff;fill-opacity:1;stroke:none;stroke-opacity:1"
			 id="g12"><rect
				 style="fill:#ffffff;fill-opacity:1;stroke:none;stroke-opacity:1"
				 id="rect14"
				 height="152"
				 width="15"
				 y="113.848"
				 x="376.5" /><rect
				 style="fill:#ffffff;fill-opacity:1;stroke:none;stroke-opacity:1"
				 id="rect16"
				 height="42.088001"
				 width="15"
				 transform="matrix(0.7031,-0.7111,0.7111,0.7031,36.1229,314.2179)"
				 y="92.803001"
				 x="386.875" /><rect
				 style="fill:#ffffff;fill-opacity:1;stroke:none;stroke-opacity:1"
				 id="rect18"
				 height="43.553001"
				 width="15"
				 transform="matrix(0.7037,0.7105,-0.7105,0.7037,191.7527,-232.0948)"
				 y="92.070999"
				 x="366.638" /><g
				 style="fill:#ffffff;fill-opacity:1;stroke:none;stroke-opacity:1"
				 id="g20"><rect
					 style="fill:#ffffff;fill-opacity:1;stroke:none;stroke-opacity:1"
					 id="rect22"
					 height="152"
					 width="15"
					 y="103.521"
					 x="376.5" /><rect
					 style="fill:#ffffff;fill-opacity:1;stroke:none;stroke-opacity:1"
					 id="rect24"
					 height="42.088001"
					 width="15"
					 transform="matrix(0.7031,0.7111,-0.7111,0.7031,298.7632,-204.5669)"
					 y="234.47701"
					 x="386.875" /><rect
					 style="fill:#ffffff;fill-opacity:1;stroke:none;stroke-opacity:1"
					 id="rect26"
					 height="43.553001"
					 width="15"
					 transform="matrix(0.7037,-0.7105,0.7105,0.7037,-70.6883,341.5443)"
					 y="233.745"
					 x="366.638" />
				 </g>
			 </g>
		 </g>
	 </svg>